<svg xmlns="http://www.w3.org/2000/svg" viewBox="100 0 400 400" width="400" height="400">
  <rect x="100" y="0" width="400" height="400" rx="16" ry="16" fill="#2d2d2d"/>
  <g opacity="0.15" stroke="#a0a0a0" stroke-width="1.5" fill="none"
     transform="rotate(15, 300, 200) translate(40, -20)">
    <path d="M 300.0 420.0 C 315.3 416.0, 329.9 410.2, 343.3 403.5 C 356.7 396.9, 369.2 388.8, 380.5 380.1 C 391.8 371.4, 402.1 361.6, 411.2 351.4 C 420.3 341.2, 428.3 330.2, 435.3 319.0 C 442.2 307.7, 448.0 295.8, 452.8 283.9 C 457.6 271.9, 461.3 259.5, 463.9 247.1 C 466.5 234.7, 468.1 222.0, 468.6 209.5 C 469.1 196.9, 468.6 184.2, 467.0 171.6 C 465.5 159.1, 462.8 146.6, 459.1 134.4 C 455.4 122.1, 450.7 110.0, 444.9 98.3 C 439.0 86.7, 432.1 75.2, 424.1 64.4 C 416.0 53.6, 406.9 43.2, 396.7 33.7 C 386.4 24.2, 375.1 15.2, 362.7 7.4 C 350.3 -0.3, 336.7 -7.4, 322.4 -12.8 C 308.0 -18.2, 292.4 -22.6, 276.4 -25.0 C 260.3 -27.4, 243.2 -28.5, 226.0 -27.3 C 208.9 -26.0, 190.9 -23.0, 173.6 -17.5 C 156.3 -12.0, 138.5 -4.4, 122.2 5.7 C 106.0 15.8, 89.8 28.4, 76.2 42.9 C 62.5 57.4, 49.7 74.6, 40.1 92.8 C 30.5 111.0, 22.7 131.7, 18.4 152.2 C 14.0 172.7, 12.4 195.0, 13.9 216.1 C 15.3 237.1, 20.1 258.8, 27.2 278.4 C 34.3 298.0, 44.8 317.1, 56.6 333.6 C 68.4 350.1, 83.1 365.1, 98.2 377.4 C 113.4 389.8, 130.6 399.9, 147.5 407.7 C 164.5 415.4, 182.5 420.7, 199.9 424.0 C 217.2 427.3, 234.9 428.2, 251.6 427.5 Z"/>
    <path d="M 300.0 420.0 C 311.8 413.3, 322.3 405.8, 332.1 398.1 C 341.8 390.4, 350.4 382.1, 358.3 373.8 C 366.2 365.4, 373.1 356.8, 379.4 348.1 C 385.7 339.4, 391.1 330.5, 396.0 321.6 C 400.9 312.7, 405.0 303.7, 408.7 294.8 C 412.3 285.8, 415.3 276.8, 417.8 267.7 C 420.3 258.7, 422.3 249.7, 423.7 240.7 C 425.2 231.6, 426.2 222.6, 426.7 213.6 C 427.1 204.5, 427.1 195.5, 426.7 186.4 C 426.2 177.4, 425.2 168.4, 423.7 159.3 C 422.3 150.3, 420.3 141.3, 417.8 132.3 C 415.3 123.2, 412.3 114.2, 408.7 105.2 C 405.0 96.3, 400.9 87.3, 396.0 78.4 C 391.1 69.5, 385.7 60.6, 379.4 51.9 C 373.1 43.2, 366.2 34.6, 358.3 26.2 C 350.4 17.9, 341.8 9.6, 332.1 1.9 C 322.3 -5.8, 311.8 -13.3, 300.0 -20.0 C 288.2 -26.7, 275.4 -33.1, 261.4 -38.1 C 247.4 -43.2, 232.3 -47.7, 216.0 -50.4 C 199.7 -53.0, 182.1 -54.7, 163.9 -53.9 C 145.6 -53.0, 125.9 -50.7, 106.4 -45.2 C 87.0 -39.6, 66.2 -31.9, 47.0 -20.6 C 27.8 -9.3, 7.9 5.0, -8.7 22.5 C -25.4 39.9, -41.5 61.2, -53.0 84.0 C -64.5 106.9, -73.7 133.5, -77.8 159.6 C -81.9 185.6, -81.9 214.4, -77.8 240.4 C -73.7 266.5, -64.5 293.1, -53.0 316.0 C -41.5 338.8, -25.4 360.1, -8.7 377.5 C 7.9 395.0, 27.8 409.3, 47.0 420.6 C 66.2 431.9, 87.0 439.6, 106.4 445.2 C 125.9 450.7, 145.6 453.0, 163.9 453.9 C 182.1 454.7, 199.7 453.0, 216.0 450.4 C 232.3 447.7, 247.4 443.2, 261.4 438.1 Z"/>
    <path d="M 300.0 420.0 C 308.4 411.7, 315.7 403.3, 322.4 395.0 C 329.1 386.8, 334.9 378.6, 340.2 370.5 C 345.6 362.4, 350.2 354.5, 354.4 346.6 C 358.6 338.8, 362.3 331.1, 365.6 323.4 C 368.9 315.8, 371.7 308.3, 374.3 300.9 C 376.9 293.5, 379.0 286.2, 380.9 279.0 C 382.8 271.8, 384.4 264.6, 385.8 257.5 C 387.1 250.5, 388.2 243.4, 389.0 236.5 C 389.8 229.5, 390.4 222.5, 390.7 215.6 C 391.1 208.6, 391.2 201.7, 391.1 194.8 C 391.0 187.9, 390.6 181.0, 390.0 174.0 C 389.5 167.0, 388.6 160.1, 387.6 153.0 C 386.5 146.0, 385.2 138.9, 383.6 131.8 C 381.9 124.6, 380.1 117.4, 377.9 110.1 C 375.6 102.8, 373.1 95.4, 370.2 87.9 C 367.3 80.4, 364.1 72.8, 360.3 65.1 C 356.6 57.3, 352.5 49.5, 347.7 41.5 C 343.0 33.6, 337.8 25.5, 331.8 17.3 C 325.9 9.1, 319.4 0.8, 311.8 -7.5 C 304.3 -15.8, 296.2 -24.2, 286.7 -32.5 C 277.3 -40.8, 267.0 -49.2, 255.2 -57.1 C 243.3 -65.0, 230.5 -73.0, 215.6 -80.0 C 200.8 -87.0, 184.7 -93.9, 166.3 -98.9 C 148.0 -103.9, 127.9 -108.6, 105.8 -110.1 C 83.6 -111.5, 59.1 -112.0, 33.6 -107.6 C 8.0 -103.3, -20.4 -96.7, -47.6 -83.8 C -74.7 -70.9, -104.5 -53.7, -129.3 -30.2 C -154.0 -6.8, -179.5 23.4, -196.2 56.7 C -212.9 90.1, -226.0 131.1, -229.7 169.8 C -233.3 208.5, -228.8 252.1, -218.1 289.0 C -207.5 325.8, -187.3 362.1, -165.8 390.8 C -144.3 419.5, -115.7 443.1, -89.1 461.1 C -62.6 479.2, -32.9 490.6, -6.2 498.9 C 20.5 507.2, 47.1 509.9, 71.1 511.0 C 95.0 512.1, 117.3 509.2, 137.5 505.8 C 157.7 502.3, 175.8 496.3, 192.3 490.1 C 208.8 484.0, 223.3 476.4, 236.5 468.9 C 249.8 461.4, 261.3 453.1, 271.9 444.9 Z"/>
    <path d="M 300.0 420.0 C 305.3 410.9, 309.8 402.3, 313.9 393.9 C 318.1 385.5, 321.6 377.5, 324.9 369.7 C 328.2 361.9, 331.0 354.4, 333.6 347.2 C 336.2 339.9, 338.4 332.9, 340.5 326.1 C 342.6 319.2, 344.3 312.6, 346.0 306.1 C 347.6 299.6, 349.0 293.3, 350.2 287.1 C 351.5 280.9, 352.6 274.8, 353.5 268.8 C 354.5 262.8, 355.3 256.9, 356.0 251.1 C 356.7 245.3, 357.2 239.6, 357.6 233.9 C 358.1 228.1, 358.4 222.5, 358.6 216.9 C 358.8 211.2, 358.9 205.6, 358.9 200.0 C 358.9 194.4, 358.8 188.8, 358.6 183.1 C 358.4 177.5, 358.1 171.9, 357.6 166.1 C 357.2 160.4, 356.7 154.7, 356.0 148.9 C 355.3 143.1, 354.5 137.2, 353.5 131.2 C 352.6 125.2, 351.5 119.1, 350.2 112.9 C 349.0 106.7, 347.6 100.4, 346.0 93.9 C 344.3 87.4, 342.6 80.8, 340.5 73.9 C 338.4 67.1, 336.2 60.1, 333.6 52.8 C 331.0 45.6, 328.2 38.1, 324.9 30.3 C 321.6 22.5, 318.1 14.5, 313.9 6.1 C 309.8 -2.3, 305.3 -10.9, 300.0 -20.0 C 294.7 -29.1, 289.0 -38.5, 282.1 -48.4 C 275.3 -58.2, 267.9 -68.5, 259.0 -79.2 C 250.1 -89.9, 240.4 -101.1, 228.6 -112.6 C 216.8 -124.0, 204.0 -136.1, 188.2 -148.0 C 172.3 -159.9, 155.1 -172.6, 133.6 -184.1 C 112.1 -195.6, 88.5 -208.0, 59.4 -217.0 C 30.3 -226.0, -2.4 -235.9, -40.9 -238.2 C -79.4 -240.4, -124.2 -242.5, -171.5 -230.6 C -218.7 -218.7, -275.8 -201.9, -324.3 -166.6 C -372.8 -131.4, -429.7 -80.4, -462.5 -19.3 C -495.3 41.8, -521.1 126.9, -521.1 200.0 C -521.1 273.1, -495.3 358.2, -462.5 419.3 C -429.7 480.4, -372.8 531.4, -324.3 566.6 C -275.8 601.9, -218.7 618.7, -171.5 630.6 C -124.2 642.5, -79.4 640.4, -40.9 638.2 C -2.4 635.9, 30.3 626.0, 59.4 617.0 C 88.5 608.0, 112.1 595.6, 133.6 584.1 C 155.1 572.6, 172.3 559.9, 188.2 548.0 C 204.0 536.1, 216.8 524.0, 228.6 512.6 C 240.4 501.1, 250.1 489.9, 259.0 479.2 C 267.9 468.5, 275.3 458.2, 282.1 448.4 Z"/>
    <path d="M 300.0 420.0 C 302.5 410.9, 304.5 402.4, 306.5 394.2 C 308.4 386.0, 310.1 378.3, 311.6 370.9 C 313.1 363.5, 314.5 356.5, 315.7 349.7 C 316.9 342.9, 318.0 336.4, 319.0 330.0 C 319.9 323.7, 320.8 317.7, 321.6 311.7 C 322.4 305.8, 323.1 300.1, 323.7 294.5 C 324.3 288.9, 324.9 283.5, 325.4 278.1 C 325.9 272.8, 326.3 267.6, 326.7 262.5 C 327.0 257.3, 327.4 252.3, 327.6 247.3 C 327.9 242.3, 328.2 237.4, 328.3 232.5 C 328.5 227.6, 328.7 222.8, 328.8 218.0 C 328.9 213.2, 328.9 208.4, 329.0 203.6 C 329.0 198.8, 329.0 194.0, 328.9 189.2 C 328.8 184.4, 328.7 179.6, 328.6 174.8 C 328.4 169.9, 328.3 165.1, 328.0 160.1 C 327.8 155.2, 327.5 150.2, 327.2 145.2 C 326.9 140.1, 326.5 135.0, 326.1 129.8 C 325.6 124.5, 325.1 119.2, 324.6 113.8 C 324.0 108.3, 323.4 102.7, 322.7 97.0 C 322.0 91.2, 321.2 85.4, 320.3 79.2 C 319.5 73.1, 318.5 66.9, 317.4 60.3 C 316.3 53.8, 315.1 47.0, 313.8 39.9 C 312.4 32.8, 310.9 25.5, 309.2 17.7 C 307.5 9.9, 305.6 1.9, 303.4 -6.8 C 301.3 -15.4, 298.9 -24.3, 296.1 -34.0 C 293.3 -43.7, 290.3 -53.8, 286.7 -64.8 C 283.0 -75.9, 279.1 -87.4, 274.2 -100.1 C 269.3 -112.9, 264.1 -126.3, 257.5 -141.2 C 250.8 -156.2, 243.7 -172.0, 234.3 -189.8 C 225.0 -207.6, 215.0 -226.5, 201.3 -248.1 C 187.6 -269.6, 173.1 -292.8, 152.1 -319.1 C 131.1 -345.4, 109.2 -374.2, 75.2 -405.8 C 41.3 -437.4, 6.3 -474.1, -51.5 -508.6 C -109.3 -543.0, -171.3 -590.7, -271.5 -612.5 C -371.6 -634.4, -502.4 -683.9, -652.3 -639.8 C -802.2 -595.8, -1055.0 -522.1, -1170.7 -348.2 C -1286.3 -174.2, -1389.7 186.6, -1346.2 404.0 C -1302.8 621.3, -1061.4 848.8, -910.0 955.8 C -758.6 1062.8, -565.0 1044.8, -437.7 1045.9 C -310.3 1047.1, -222.3 994.5, -146.0 962.8 C -69.7 931.0, -23.9 889.2, 20.2 855.5 C 64.2 821.7, 91.6 789.3, 118.2 760.3 C 144.7 731.4, 162.4 705.6, 179.2 681.8 C 196.1 658.0, 208.1 637.1, 219.3 617.5 C 230.6 598.0, 239.0 580.7, 246.9 564.4 C 254.7 548.2, 260.8 533.6, 266.5 519.9 C 272.1 506.1, 276.7 493.7, 280.9 481.9 C 285.1 470.0, 288.5 459.3, 291.7 448.9 Z"/>
    <path d="M 300.0 -20.0 C 284.7 -16.0, 270.1 -10.2, 256.7 -3.5 C 243.3 3.1, 230.8 11.2, 219.5 19.9 C 208.2 28.6, 197.9 38.4, 188.8 48.6 C 179.7 58.8, 171.7 69.8, 164.7 81.0 C 157.8 92.3, 152.0 104.2, 147.2 116.1 C 142.4 128.1, 138.7 140.5, 136.1 152.9 C 133.5 165.3, 131.9 178.0, 131.4 190.5 C 130.9 203.1, 131.4 215.8, 133.0 228.4 C 134.5 240.9, 137.2 253.4, 140.9 265.6 C 144.6 277.9, 149.3 290.0, 155.1 301.7 C 161.0 313.3, 167.9 324.8, 175.9 335.6 C 184.0 346.4, 193.1 356.8, 203.3 366.3 C 213.6 375.8, 224.9 384.8, 237.3 392.6 C 249.7 400.3, 263.3 407.4, 277.6 412.8 C 292.0 418.2, 307.6 422.6, 323.6 425.0 C 339.7 427.4, 356.8 428.5, 374.0 427.3 C 391.1 426.0, 409.1 423.0, 426.4 417.5 C 443.7 412.0, 461.5 404.4, 477.8 394.3 C 494.0 384.2, 510.2 371.6, 523.8 357.1 C 537.5 342.6, 550.3 325.4, 559.9 307.2 C 569.5 289.0, 577.3 268.3, 581.6 247.8 C 586.0 227.3, 587.6 205.0, 586.1 183.9 C 584.7 162.9, 579.9 141.2, 572.8 121.6 C 565.7 102.0, 555.2 82.9, 543.4 66.4 C 531.6 49.9, 516.9 34.9, 501.8 22.6 C 486.6 10.2, 469.4 0.1, 452.5 -7.7 C 435.5 -15.4, 417.5 -20.7, 400.1 -24.0 C 382.8 -27.3, 365.1 -28.2, 348.4 -27.5 Z"/>
    <path d="M 300.0 -20.0 C 288.2 -13.3, 277.7 -5.8, 267.9 1.9 C 258.2 9.6, 249.6 17.9, 241.7 26.2 C 233.8 34.6, 226.9 43.2, 220.6 51.9 C 214.3 60.6, 208.9 69.5, 204.0 78.4 C 199.1 87.3, 195.0 96.3, 191.3 105.2 C 187.7 114.2, 184.7 123.2, 182.2 132.3 C 179.7 141.3, 177.7 150.3, 176.3 159.3 C 174.8 168.4, 173.8 177.4, 173.3 186.4 C 172.9 195.5, 172.9 204.5, 173.3 213.6 C 173.8 222.6, 174.8 231.6, 176.3 240.7 C 177.7 249.7, 179.7 258.7, 182.2 267.7 C 184.7 276.8, 187.7 285.8, 191.3 294.8 C 195.0 303.7, 199.1 312.7, 204.0 321.6 C 208.9 330.5, 214.3 339.4, 220.6 348.1 C 226.9 356.8, 233.8 365.4, 241.7 373.8 C 249.6 382.1, 258.2 390.4, 267.9 398.1 C 277.7 405.8, 288.2 413.3, 300.0 420.0 C 311.8 426.7, 324.6 433.1, 338.6 438.1 C 352.6 443.2, 367.7 447.7, 384.0 450.4 C 400.3 453.0, 417.9 454.7, 436.1 453.9 C 454.4 453.0, 474.1 450.7, 493.6 445.2 C 513.0 439.6, 533.8 431.9, 553.0 420.6 C 572.2 409.3, 592.1 395.0, 608.7 377.5 C 625.4 360.1, 641.5 338.8, 653.0 316.0 C 664.5 293.1, 673.7 266.5, 677.8 240.4 C 681.9 214.4, 681.9 185.6, 677.8 159.6 C 673.7 133.5, 664.5 106.9, 653.0 84.0 C 641.5 61.2, 625.4 39.9, 608.7 22.5 C 592.1 5.0, 572.2 -9.3, 553.0 -20.6 C 533.8 -31.9, 513.0 -39.6, 493.6 -45.2 C 474.1 -50.7, 454.4 -53.0, 436.1 -53.9 C 417.9 -54.7, 400.3 -53.0, 384.0 -50.4 C 367.7 -47.7, 352.6 -43.2, 338.6 -38.1 Z"/>
    <path d="M 300.0 -20.0 C 291.6 -11.7, 284.3 -3.3, 277.6 5.0 C 270.9 13.2, 265.1 21.4, 259.8 29.5 C 254.4 37.6, 249.8 45.5, 245.6 53.4 C 241.4 61.2, 237.7 68.9, 234.4 76.6 C 231.1 84.2, 228.3 91.7, 225.7 99.1 C 223.1 106.5, 221.0 113.8, 219.1 121.0 C 217.2 128.2, 215.6 135.4, 214.2 142.5 C 212.9 149.5, 211.8 156.6, 211.0 163.5 C 210.2 170.5, 209.6 177.5, 209.3 184.4 C 208.9 191.4, 208.8 198.3, 208.9 205.2 C 209.0 212.1, 209.4 219.0, 210.0 226.0 C 210.5 233.0, 211.4 239.9, 212.4 247.0 C 213.5 254.0, 214.8 261.1, 216.4 268.2 C 218.1 275.4, 219.9 282.6, 222.1 289.9 C 224.4 297.2, 226.9 304.6, 229.8 312.1 C 232.7 319.6, 235.9 327.2, 239.7 334.9 C 243.4 342.7, 247.5 350.5, 252.3 358.5 C 257.0 366.4, 262.2 374.5, 268.2 382.7 C 274.1 390.9, 280.6 399.2, 288.2 407.5 C 295.7 415.8, 303.8 424.2, 313.3 432.5 C 322.7 440.8, 333.0 449.2, 344.8 457.1 C 356.7 465.0, 369.5 473.0, 384.4 480.0 C 399.2 487.0, 415.3 493.9, 433.7 498.9 C 452.0 503.9, 472.1 508.6, 494.2 510.1 C 516.4 511.5, 540.9 512.0, 566.4 507.6 C 592.0 503.3, 620.4 496.7, 647.6 483.8 C 674.7 470.9, 704.5 453.7, 729.3 430.2 C 754.0 406.8, 779.5 376.6, 796.2 343.3 C 812.9 309.9, 826.0 268.9, 829.7 230.2 C 833.3 191.5, 828.8 147.9, 818.1 111.0 C 807.5 74.2, 787.3 37.9, 765.8 9.2 C 744.3 -19.5, 715.7 -43.1, 689.1 -61.1 C 662.6 -79.2, 632.9 -90.6, 606.2 -98.9 C 579.5 -107.2, 552.9 -109.9, 528.9 -111.0 C 505.0 -112.1, 482.7 -109.2, 462.5 -105.8 C 442.3 -102.3, 424.2 -96.3, 407.7 -90.1 C 391.2 -84.0, 376.7 -76.4, 363.5 -68.9 C 350.2 -61.4, 338.7 -53.1, 328.1 -44.9 Z"/>
    <path d="M 300.0 -20.0 C 294.7 -10.9, 290.2 -2.3, 286.1 6.1 C 281.9 14.5, 278.4 22.5, 275.1 30.3 C 271.8 38.1, 269.0 45.6, 266.4 52.8 C 263.8 60.1, 261.6 67.1, 259.5 73.9 C 257.4 80.8, 255.7 87.4, 254.0 93.9 C 252.4 100.4, 251.0 106.7, 249.8 112.9 C 248.5 119.1, 247.4 125.2, 246.5 131.2 C 245.5 137.2, 244.7 143.1, 244.0 148.9 C 243.3 154.7, 242.8 160.4, 242.4 166.1 C 241.9 171.9, 241.6 177.5, 241.4 183.1 C 241.2 188.8, 241.1 194.4, 241.1 200.0 C 241.1 205.6, 241.2 211.2, 241.4 216.9 C 241.6 222.5, 241.9 228.1, 242.4 233.9 C 242.8 239.6, 243.3 245.3, 244.0 251.1 C 244.7 256.9, 245.5 262.8, 246.5 268.8 C 247.4 274.8, 248.5 280.9, 249.8 287.1 C 251.0 293.3, 252.4 299.6, 254.0 306.1 C 255.7 312.6, 257.4 319.2, 259.5 326.1 C 261.6 332.9, 263.8 339.9, 266.4 347.2 C 269.0 354.4, 271.8 361.9, 275.1 369.7 C 278.4 377.5, 281.9 385.5, 286.1 393.9 C 290.2 402.3, 294.7 410.9, 300.0 420.0 C 305.3 429.1, 311.0 438.5, 317.9 448.4 C 324.7 458.2, 332.1 468.5, 341.0 479.2 C 349.9 489.9, 359.6 501.1, 371.4 512.6 C 383.2 524.0, 396.0 536.1, 411.8 548.0 C 427.7 559.9, 444.9 572.6, 466.4 584.1 C 487.9 595.6, 511.5 608.0, 540.6 617.0 C 569.7 626.0, 602.4 635.9, 640.9 638.2 C 679.4 640.4, 724.2 642.5, 771.5 630.6 C 818.7 618.7, 875.8 601.9, 924.3 566.6 C 972.8 531.4, 1029.7 480.4, 1062.5 419.3 C 1095.3 358.2, 1121.1 273.1, 1121.1 200.0 C 1121.1 126.9, 1095.3 41.8, 1062.5 -19.3 C 1029.7 -80.4, 972.8 -131.4, 924.3 -166.6 C 875.8 -201.9, 818.7 -218.7, 771.5 -230.6 C 724.2 -242.5, 679.4 -240.4, 640.9 -238.2 C 602.4 -235.9, 569.7 -226.0, 540.6 -217.0 C 511.5 -208.0, 487.9 -195.6, 466.4 -184.1 C 444.9 -172.6, 427.7 -159.9, 411.8 -148.0 C 396.0 -136.1, 383.2 -124.0, 371.4 -112.6 C 359.6 -101.1, 349.9 -89.9, 341.0 -79.2 C 332.1 -68.5, 324.7 -58.2, 317.9 -48.4 Z"/>
    <path d="M 300.0 -20.0 C 297.5 -10.9, 295.5 -2.4, 293.5 5.8 C 291.6 14.0, 289.9 21.7, 288.4 29.1 C 286.9 36.5, 285.5 43.5, 284.3 50.3 C 283.1 57.1, 282.0 63.6, 281.0 70.0 C 280.1 76.3, 279.2 82.3, 278.4 88.3 C 277.6 94.2, 276.9 99.9, 276.3 105.5 C 275.7 111.1, 275.1 116.5, 274.6 121.9 C 274.1 127.2, 273.7 132.4, 273.3 137.5 C 273.0 142.7, 272.6 147.7, 272.4 152.7 C 272.1 157.7, 271.8 162.6, 271.7 167.5 C 271.5 172.4, 271.3 177.2, 271.2 182.0 C 271.1 186.8, 271.1 191.6, 271.0 196.4 C 271.0 201.2, 271.0 206.0, 271.1 210.8 C 271.2 215.6, 271.3 220.4, 271.4 225.2 C 271.6 230.1, 271.7 234.9, 272.0 239.9 C 272.2 244.8, 272.5 249.8, 272.8 254.8 C 273.1 259.9, 273.5 265.0, 273.9 270.2 C 274.4 275.5, 274.9 280.8, 275.4 286.2 C 276.0 291.7, 276.6 297.3, 277.3 303.0 C 278.0 308.8, 278.8 314.6, 279.7 320.8 C 280.5 326.9, 281.5 333.1, 282.6 339.7 C 283.7 346.2, 284.9 353.0, 286.2 360.1 C 287.6 367.2, 289.1 374.5, 290.8 382.3 C 292.5 390.1, 294.4 398.1, 296.6 406.8 C 298.7 415.4, 301.1 424.3, 303.9 434.0 C 306.7 443.7, 309.7 453.8, 313.3 464.8 C 317.0 475.9, 320.9 487.4, 325.8 500.1 C 330.7 512.9, 335.9 526.3, 342.5 541.2 C 349.2 556.2, 356.3 572.0, 365.7 589.8 C 375.0 607.6, 385.0 626.5, 398.7 648.1 C 412.4 669.6, 426.9 692.8, 447.9 719.1 C 468.9 745.4, 490.8 774.2, 524.8 805.8 C 558.7 837.4, 593.7 874.1, 651.5 908.6 C 709.3 943.0, 771.3 990.7, 871.5 1012.5 C 971.6 1034.4, 1102.4 1083.9, 1252.3 1039.8 C 1402.2 995.8, 1655.0 922.1, 1770.7 748.2 C 1886.3 574.2, 1989.7 213.4, 1946.2 -4.0 C 1902.8 -221.3, 1661.4 -448.8, 1510.0 -555.8 C 1358.6 -662.8, 1165.0 -644.8, 1037.7 -645.9 C 910.3 -647.1, 822.3 -594.5, 746.0 -562.8 C 669.7 -531.0, 623.9 -489.2, 579.8 -455.5 C 535.8 -421.7, 508.4 -389.3, 481.8 -360.3 C 455.3 -331.4, 437.6 -305.6, 420.8 -281.8 C 403.9 -258.0, 391.9 -237.1, 380.7 -217.5 C 369.4 -198.0, 361.0 -180.7, 353.1 -164.4 C 345.3 -148.2, 339.2 -133.6, 333.5 -119.9 C 327.9 -106.1, 323.3 -93.7, 319.1 -81.9 C 314.9 -70.0, 311.5 -59.3, 308.3 -48.9 Z"/>
    <path d="M 356.9 -12.5 C 355.9 -8.6, 354.4 -4.8, 352.7 -1.3 C 351.0 2.2, 348.9 5.4, 346.6 8.3 C 344.4 11.3, 341.8 13.9, 339.2 16.3 C 336.6 18.6, 333.7 20.7, 330.8 22.5 C 327.9 24.3, 324.8 25.8, 321.7 27.0 C 318.6 28.3, 315.4 29.2, 312.2 29.9 C 309.0 30.6, 305.7 31.0, 302.4 31.1 C 299.2 31.3, 295.9 31.1, 292.7 30.7 C 289.4 30.3, 286.2 29.6, 283.0 28.7 C 279.8 27.7, 276.7 26.5, 273.7 25.0 C 270.7 23.5, 267.7 21.7, 264.9 19.6 C 262.1 17.5, 259.4 15.2, 257.0 12.5 C 254.5 9.9, 252.2 6.9, 250.2 3.7 C 248.2 0.5, 246.3 -3.0, 244.9 -6.7 C 243.5 -10.4, 242.4 -14.5, 241.8 -18.6 C 241.1 -22.8, 240.9 -27.2, 241.2 -31.6 C 241.5 -36.1, 242.3 -40.7, 243.7 -45.2 C 245.1 -49.7, 247.1 -54.3, 249.7 -58.5 C 252.3 -62.7, 255.6 -66.9, 259.3 -70.4 C 263.1 -74.0, 267.5 -77.3, 272.3 -79.8 C 277.0 -82.3, 282.3 -84.3, 287.6 -85.4 C 292.9 -86.5, 298.7 -86.9, 304.2 -86.6 C 309.6 -86.2, 315.2 -84.9, 320.3 -83.1 C 325.4 -81.3, 330.3 -78.6, 334.6 -75.5 C 338.8 -72.4, 342.7 -68.6, 345.9 -64.7 C 349.1 -60.8, 351.7 -56.4, 353.7 -52.0 C 355.8 -47.6, 357.1 -42.9, 358.0 -38.4 C 358.8 -33.9, 359.1 -29.3, 358.9 -25.0 Z"/>
    <path d="M 410.0 9.5 C 406.7 15.4, 402.9 20.6, 399.0 25.5 C 395.2 30.4, 391.0 34.7, 386.9 38.6 C 382.7 42.6, 378.4 46.0, 374.0 49.2 C 369.7 52.3, 365.3 55.0, 360.8 57.5 C 356.4 59.9, 351.9 62.0, 347.4 63.8 C 342.9 65.6, 338.4 67.1, 333.9 68.4 C 329.4 69.6, 324.8 70.6, 320.3 71.3 C 315.8 72.1, 311.3 72.6, 306.8 72.8 C 302.3 73.0, 297.7 73.0, 293.2 72.8 C 288.7 72.6, 284.2 72.1, 279.7 71.3 C 275.2 70.6, 270.6 69.6, 266.1 68.4 C 261.6 67.1, 257.1 65.6, 252.6 63.8 C 248.1 62.0, 243.6 59.9, 239.2 57.5 C 234.7 55.0, 230.3 52.3, 226.0 49.2 C 221.6 46.0, 217.3 42.6, 213.1 38.6 C 209.0 34.7, 204.8 30.4, 201.0 25.5 C 197.1 20.6, 193.3 15.4, 190.0 9.5 C 186.7 3.6, 183.5 -2.8, 180.9 -9.8 C 178.4 -16.8, 176.1 -24.4, 174.8 -32.5 C 173.5 -40.7, 172.6 -49.5, 173.1 -58.6 C 173.5 -67.7, 174.6 -77.6, 177.4 -87.3 C 180.2 -97.0, 184.1 -107.4, 189.7 -117.0 C 195.3 -126.6, 202.5 -136.6, 211.2 -144.9 C 220.0 -153.2, 230.6 -161.3, 242.0 -167.0 C 253.4 -172.8, 266.8 -177.4, 279.8 -179.4 C 292.8 -181.5, 307.2 -181.5, 320.2 -179.4 C 333.2 -177.4, 346.6 -172.8, 358.0 -167.0 C 369.4 -161.3, 380.0 -153.2, 388.8 -144.9 C 397.5 -136.6, 404.7 -126.6, 410.3 -117.0 C 415.9 -107.4, 419.8 -97.0, 422.6 -87.3 C 425.4 -77.6, 426.5 -67.7, 426.9 -58.6 C 427.4 -49.5, 426.5 -40.7, 425.2 -32.5 C 423.9 -24.4, 421.6 -16.8, 419.1 -9.8 Z"/>
    <path d="M 455.6 44.4 C 449.7 50.4, 443.7 55.5, 437.9 60.3 C 432.1 65.0, 426.3 69.1, 420.6 72.9 C 414.9 76.7, 409.2 79.9, 403.7 82.9 C 398.1 85.9, 392.7 88.5, 387.3 90.8 C 381.9 93.2, 376.6 95.2, 371.4 97.0 C 366.1 98.8, 361.0 100.3, 355.9 101.7 C 350.7 103.0, 345.7 104.1, 340.7 105.1 C 335.7 106.0, 330.7 106.8, 325.8 107.4 C 320.8 107.9, 315.9 108.3, 311.0 108.6 C 306.1 108.8, 301.2 108.9, 296.3 108.8 C 291.4 108.8, 286.5 108.5, 281.6 108.1 C 276.7 107.7, 271.8 107.1, 266.8 106.4 C 261.8 105.6, 256.8 104.7, 251.8 103.5 C 246.7 102.4, 241.6 101.1, 236.4 99.5 C 231.3 97.9, 226.0 96.2, 220.7 94.1 C 215.4 92.0, 210.0 89.8, 204.6 87.1 C 199.1 84.5, 193.6 81.6, 187.9 78.2 C 182.3 74.8, 176.6 71.2, 170.8 67.0 C 165.0 62.7, 159.2 58.1, 153.3 52.8 C 147.4 47.5, 141.4 41.7, 135.6 35.1 C 129.7 28.4, 123.8 21.1, 118.2 12.7 C 112.6 4.4, 106.9 -4.7, 102.0 -15.2 C 97.1 -25.7, 92.2 -37.1, 88.6 -50.1 C 85.1 -63.0, 81.8 -77.3, 80.8 -92.9 C 79.7 -108.6, 79.4 -125.9, 82.5 -144.0 C 85.6 -162.0, 90.2 -182.1, 99.3 -201.3 C 108.5 -220.5, 120.6 -241.6, 137.2 -259.1 C 153.8 -276.6, 175.1 -294.6, 198.7 -306.4 C 222.3 -318.3, 251.3 -327.5, 278.7 -330.1 C 306.0 -332.7, 336.9 -329.5, 362.9 -321.9 C 389.0 -314.4, 414.6 -300.1, 434.9 -284.9 C 455.2 -269.7, 471.9 -249.5, 484.6 -230.7 C 497.4 -211.9, 505.5 -191.0, 511.4 -172.1 C 517.3 -153.2, 519.1 -134.4, 519.9 -117.5 C 520.7 -100.5, 518.7 -84.7, 516.2 -70.4 C 513.7 -56.2, 509.5 -43.4, 505.2 -31.7 C 500.8 -20.0, 495.5 -9.8, 490.1 -0.4 C 484.8 8.9, 479.0 17.1, 473.2 24.5 Z"/>
    <path d="M 490.5 90.0 C 482.7 94.6, 475.2 98.5, 467.9 102.1 C 460.6 105.7, 453.7 108.7, 447.0 111.6 C 440.2 114.4, 433.8 116.9, 427.5 119.1 C 421.2 121.4, 415.1 123.3, 409.2 125.1 C 403.2 126.9, 397.5 128.4, 391.9 129.8 C 386.3 131.2, 380.8 132.4, 375.4 133.5 C 370.0 134.6, 364.8 135.5, 359.6 136.4 C 354.4 137.2, 349.3 137.9, 344.3 138.5 C 339.2 139.1, 334.3 139.5, 329.3 139.9 C 324.4 140.3, 319.5 140.6, 314.6 140.8 C 309.7 141.0, 304.9 141.1, 300.0 141.1 C 295.1 141.1, 290.3 141.0, 285.4 140.8 C 280.5 140.6, 275.6 140.3, 270.7 139.9 C 265.7 139.5, 260.8 139.1, 255.7 138.5 C 250.7 137.9, 245.6 137.2, 240.4 136.4 C 235.2 135.5, 230.0 134.6, 224.6 133.5 C 219.2 132.4, 213.7 131.2, 208.1 129.8 C 202.5 128.4, 196.8 126.9, 190.8 125.1 C 184.9 123.3, 178.8 121.4, 172.5 119.1 C 166.2 116.9, 159.8 114.4, 153.0 111.6 C 146.3 108.7, 139.4 105.7, 132.1 102.1 C 124.8 98.5, 117.3 94.6, 109.5 90.0 C 101.6 85.4, 93.5 80.5, 84.9 74.5 C 76.4 68.6, 67.5 62.2, 58.2 54.5 C 48.9 46.8, 39.2 38.4, 29.3 28.2 C 19.4 18.0, 8.9 6.9, -1.4 -6.8 C -11.7 -20.6, -22.7 -35.5, -32.6 -54.1 C -42.6 -72.7, -53.3 -93.2, -61.1 -118.4 C -68.9 -143.6, -77.5 -171.9, -79.5 -205.2 C -81.4 -238.5, -83.2 -277.4, -72.9 -318.3 C -62.6 -359.2, -48.0 -408.7, -17.5 -450.7 C 13.0 -492.7, 57.2 -542.0, 110.1 -570.4 C 163.0 -598.8, 236.7 -621.1, 300.0 -621.1 C 363.3 -621.1, 437.0 -598.8, 489.9 -570.4 C 542.8 -542.0, 587.0 -492.7, 617.5 -450.7 C 648.0 -408.7, 662.6 -359.2, 672.9 -318.3 C 683.2 -277.4, 681.4 -238.5, 679.5 -205.2 C 677.5 -171.9, 668.9 -143.6, 661.1 -118.4 C 653.3 -93.2, 642.6 -72.7, 632.6 -54.1 C 622.7 -35.5, 611.7 -20.6, 601.4 -6.8 C 591.1 6.9, 580.6 18.0, 570.7 28.2 C 560.8 38.4, 551.1 46.8, 541.8 54.5 C 532.5 62.2, 523.6 68.6, 515.1 74.5 Z"/>
    <path d="M 512.5 143.1 C 503.7 145.4, 495.5 147.5, 487.6 149.3 C 479.7 151.2, 472.3 152.8, 465.1 154.3 C 457.9 155.7, 451.2 157.0, 444.6 158.2 C 438.0 159.4, 431.7 160.4, 425.6 161.4 C 419.5 162.3, 413.7 163.1, 407.9 163.9 C 402.2 164.7, 396.7 165.3, 391.3 165.9 C 385.9 166.6, 380.6 167.1, 375.5 167.6 C 370.3 168.0, 365.3 168.4, 360.3 168.8 C 355.4 169.2, 350.5 169.5, 345.7 169.8 C 340.9 170.0, 336.1 170.3, 331.4 170.4 C 326.7 170.6, 322.0 170.8, 317.4 170.9 C 312.7 171.0, 308.1 171.0, 303.5 171.0 C 298.8 171.0, 294.2 171.0, 289.6 171.0 C 285.0 170.9, 280.3 170.8, 275.6 170.7 C 271.0 170.5, 266.3 170.4, 261.5 170.1 C 256.7 169.9, 251.9 169.6, 247.1 169.3 C 242.2 169.0, 237.2 168.7, 232.2 168.2 C 227.1 167.8, 222.0 167.3, 216.7 166.8 C 211.4 166.3, 206.1 165.7, 200.5 165.0 C 194.9 164.3, 189.3 163.6, 183.4 162.7 C 177.5 161.9, 171.4 160.9, 165.1 159.9 C 158.8 158.8, 152.2 157.7, 145.4 156.3 C 138.5 155.0, 131.4 153.6, 123.9 151.9 C 116.4 150.3, 108.6 148.5, 100.3 146.4 C 92.0 144.3, 83.3 142.0, 73.9 139.3 C 64.6 136.6, 54.8 133.7, 44.2 130.2 C 33.5 126.6, 22.4 122.8, 10.1 118.1 C -2.2 113.4, -15.2 108.4, -29.6 102.0 C -44.0 95.6, -59.3 88.7, -76.5 79.6 C -93.7 70.6, -112.0 60.9, -132.8 47.7 C -153.6 34.5, -176.0 20.5, -201.4 0.2 C -226.8 -20.1, -254.6 -41.3, -285.1 -74.0 C -315.6 -106.8, -351.1 -140.7, -384.4 -196.5 C -417.7 -252.3, -463.7 -312.2, -484.9 -408.9 C -506.0 -505.6, -553.8 -632.0, -511.2 -776.8 C -468.6 -921.6, -397.5 -1165.8, -229.5 -1277.5 C -61.5 -1389.2, 287.1 -1489.0, 497.0 -1447.1 C 706.9 -1405.1, 926.7 -1172.0, 1030.1 -1025.7 C 1133.4 -879.4, 1116.0 -692.5, 1117.1 -569.5 C 1118.2 -446.5, 1067.5 -361.4, 1036.8 -287.7 C 1006.1 -214.0, 965.7 -169.8, 933.1 -127.3 C 900.5 -84.7, 869.2 -58.2, 841.2 -32.6 C 813.3 -7.0, 788.4 10.1, 765.4 26.4 C 742.4 42.7, 722.2 54.3, 703.3 65.2 C 684.4 76.0, 667.7 84.2, 652.0 91.7 C 636.3 99.3, 622.3 105.2, 609.0 110.7 C 595.7 116.2, 583.7 120.5, 572.3 124.6 C 560.8 128.6, 550.4 132.0, 540.5 135.0 Z"/>
    <path d="M 243.1 412.5 C 244.1 408.6, 245.6 404.8, 247.3 401.3 C 249.0 397.8, 251.1 394.6, 253.4 391.7 C 255.6 388.7, 258.2 386.1, 260.8 383.7 C 263.4 381.4, 266.3 379.3, 269.2 377.5 C 272.1 375.7, 275.2 374.2, 278.3 373.0 C 281.4 371.7, 284.6 370.8, 287.8 370.1 C 291.0 369.4, 294.3 369.0, 297.6 368.9 C 300.8 368.7, 304.1 368.9, 307.3 369.3 C 310.6 369.7, 313.8 370.4, 317.0 371.3 C 320.2 372.3, 323.3 373.5, 326.3 375.0 C 329.3 376.5, 332.3 378.3, 335.1 380.4 C 337.9 382.5, 340.6 384.8, 343.0 387.5 C 345.5 390.1, 347.8 393.1, 349.8 396.3 C 351.8 399.5, 353.7 403.0, 355.1 406.7 C 356.5 410.4, 357.6 414.5, 358.2 418.6 C 358.9 422.8, 359.1 427.2, 358.8 431.6 C 358.5 436.1, 357.7 440.7, 356.3 445.2 C 354.9 449.7, 352.9 454.3, 350.3 458.5 C 347.7 462.7, 344.4 466.9, 340.7 470.4 C 336.9 474.0, 332.5 477.3, 327.7 479.8 C 323.0 482.3, 317.7 484.3, 312.4 485.4 C 307.1 486.5, 301.3 486.9, 295.8 486.6 C 290.4 486.2, 284.8 484.9, 279.7 483.1 C 274.6 481.3, 269.7 478.6, 265.4 475.5 C 261.2 472.4, 257.3 468.6, 254.1 464.7 C 250.9 460.8, 248.3 456.4, 246.3 452.0 C 244.2 447.6, 242.9 442.9, 242.0 438.4 C 241.2 433.9, 240.9 429.3, 241.1 425.0 Z"/>
    <path d="M 190.0 390.5 C 193.3 384.6, 197.1 379.4, 201.0 374.5 C 204.8 369.6, 209.0 365.3, 213.1 361.4 C 217.3 357.4, 221.6 354.0, 226.0 350.8 C 230.3 347.7, 234.7 345.0, 239.2 342.5 C 243.6 340.1, 248.1 338.0, 252.6 336.2 C 257.1 334.4, 261.6 332.9, 266.1 331.6 C 270.6 330.4, 275.2 329.4, 279.7 328.7 C 284.2 327.9, 288.7 327.4, 293.2 327.2 C 297.7 327.0, 302.3 327.0, 306.8 327.2 C 311.3 327.4, 315.8 327.9, 320.3 328.7 C 324.8 329.4, 329.4 330.4, 333.9 331.6 C 338.4 332.9, 342.9 334.4, 347.4 336.2 C 351.9 338.0, 356.4 340.1, 360.8 342.5 C 365.3 345.0, 369.7 347.7, 374.0 350.8 C 378.4 354.0, 382.7 357.4, 386.9 361.4 C 391.0 365.3, 395.2 369.6, 399.0 374.5 C 402.9 379.4, 406.7 384.6, 410.0 390.5 C 413.3 396.4, 416.5 402.8, 419.1 409.8 C 421.6 416.8, 423.9 424.4, 425.2 432.5 C 426.5 440.7, 427.4 449.5, 426.9 458.6 C 426.5 467.7, 425.4 477.6, 422.6 487.3 C 419.8 497.0, 415.9 507.4, 410.3 517.0 C 404.7 526.6, 397.5 536.6, 388.8 544.9 C 380.0 553.2, 369.4 561.3, 358.0 567.0 C 346.6 572.8, 333.2 577.4, 320.2 579.4 C 307.2 581.5, 292.8 581.5, 279.8 579.4 C 266.8 577.4, 253.4 572.8, 242.0 567.0 C 230.6 561.3, 220.0 553.2, 211.2 544.9 C 202.5 536.6, 195.3 526.6, 189.7 517.0 C 184.1 507.4, 180.2 497.0, 177.4 487.3 C 174.6 477.6, 173.5 467.7, 173.1 458.6 C 172.6 449.5, 173.5 440.7, 174.8 432.5 C 176.1 424.4, 178.4 416.8, 180.9 409.8 Z"/>
    <path d="M 144.4 355.6 C 150.3 349.6, 156.3 344.5, 162.1 339.7 C 167.9 335.0, 173.7 330.9, 179.4 327.1 C 185.1 323.3, 190.8 320.1, 196.3 317.1 C 201.9 314.1, 207.3 311.5, 212.7 309.2 C 218.1 306.8, 223.4 304.8, 228.6 303.0 C 233.9 301.2, 239.0 299.7, 244.1 298.3 C 249.3 297.0, 254.3 295.9, 259.3 294.9 C 264.3 294.0, 269.3 293.2, 274.2 292.6 C 279.2 292.1, 284.1 291.7, 289.0 291.4 C 293.9 291.2, 298.8 291.1, 303.7 291.2 C 308.6 291.2, 313.5 291.5, 318.4 291.9 C 323.3 292.3, 328.2 292.9, 333.2 293.6 C 338.2 294.4, 343.2 295.3, 348.2 296.5 C 353.3 297.6, 358.4 298.9, 363.6 300.5 C 368.7 302.1, 374.0 303.8, 379.3 305.9 C 384.6 308.0, 390.0 310.2, 395.4 312.9 C 400.9 315.5, 406.4 318.4, 412.1 321.8 C 417.7 325.2, 423.4 328.8, 429.2 333.0 C 435.0 337.3, 440.8 341.9, 446.7 347.2 C 452.6 352.5, 458.6 358.3, 464.4 364.9 C 470.3 371.6, 476.2 378.9, 481.8 387.3 C 487.4 395.6, 493.1 404.7, 498.0 415.2 C 502.9 425.7, 507.8 437.1, 511.4 450.1 C 514.9 463.0, 518.2 477.3, 519.2 492.9 C 520.3 508.6, 520.6 525.9, 517.5 544.0 C 514.4 562.0, 509.8 582.1, 500.7 601.3 C 491.5 620.5, 479.4 641.6, 462.8 659.1 C 446.2 676.6, 424.9 694.6, 401.3 706.4 C 377.7 718.3, 348.7 727.5, 321.3 730.1 C 294.0 732.7, 263.1 729.5, 237.1 721.9 C 211.0 714.4, 185.4 700.1, 165.1 684.9 C 144.8 669.7, 128.1 649.5, 115.4 630.7 C 102.6 611.9, 94.5 591.0, 88.6 572.1 C 82.7 553.2, 80.9 534.4, 80.1 517.5 C 79.3 500.5, 81.3 484.7, 83.8 470.4 C 86.3 456.2, 90.5 443.4, 94.8 431.7 C 99.2 420.0, 104.5 409.8, 109.9 400.4 C 115.2 391.1, 121.0 382.9, 126.8 375.5 Z"/>
    <path d="M 109.5 310.0 C 117.3 305.4, 124.8 301.5, 132.1 297.9 C 139.4 294.3, 146.3 291.3, 153.0 288.4 C 159.8 285.6, 166.2 283.1, 172.5 280.9 C 178.8 278.6, 184.9 276.7, 190.8 274.9 C 196.8 273.1, 202.5 271.6, 208.1 270.2 C 213.7 268.8, 219.2 267.6, 224.6 266.5 C 230.0 265.4, 235.2 264.5, 240.4 263.6 C 245.6 262.8, 250.7 262.1, 255.7 261.5 C 260.8 260.9, 265.7 260.5, 270.7 260.1 C 275.6 259.7, 280.5 259.4, 285.4 259.2 C 290.3 259.0, 295.1 258.9, 300.0 258.9 C 304.9 258.9, 309.7 259.0, 314.6 259.2 C 319.5 259.4, 324.4 259.7, 329.3 260.1 C 334.3 260.5, 339.2 260.9, 344.3 261.5 C 349.3 262.1, 354.4 262.8, 359.6 263.6 C 364.8 264.5, 370.0 265.4, 375.4 266.5 C 380.8 267.6, 386.3 268.8, 391.9 270.2 C 397.5 271.6, 403.2 273.1, 409.2 274.9 C 415.1 276.7, 421.2 278.6, 427.5 280.9 C 433.8 283.1, 440.2 285.6, 447.0 288.4 C 453.7 291.3, 460.6 294.3, 467.9 297.9 C 475.2 301.5, 482.7 305.4, 490.5 310.0 C 498.4 314.6, 506.5 319.5, 515.1 325.5 C 523.6 331.4, 532.5 337.8, 541.8 345.5 C 551.1 353.2, 560.8 361.6, 570.7 371.8 C 580.6 382.0, 591.1 393.1, 601.4 406.8 C 611.7 420.6, 622.7 435.5, 632.6 454.1 C 642.6 472.7, 653.3 493.2, 661.1 518.4 C 668.9 543.6, 677.5 571.9, 679.5 605.2 C 681.4 638.5, 683.2 677.4, 672.9 718.3 C 662.6 759.2, 648.0 808.7, 617.5 850.7 C 587.0 892.7, 542.8 942.0, 489.9 970.4 C 437.0 998.8, 363.3 1021.1, 300.0 1021.1 C 236.7 1021.1, 163.0 998.8, 110.1 970.4 C 57.2 942.0, 13.0 892.7, -17.5 850.7 C -48.0 808.7, -62.6 759.2, -72.9 718.3 C -83.2 677.4, -81.4 638.5, -79.5 605.2 C -77.5 571.9, -68.9 543.6, -61.1 518.4 C -53.3 493.2, -42.6 472.7, -32.6 454.1 C -22.7 435.5, -11.7 420.6, -1.4 406.8 C 8.9 393.1, 19.4 382.0, 29.3 371.8 C 39.2 361.6, 48.9 353.2, 58.2 345.5 C 67.5 337.8, 76.4 331.4, 84.9 325.5 Z"/>
    <path d="M 87.5 256.9 C 96.3 254.6, 104.5 252.5, 112.4 250.7 C 120.3 248.8, 127.7 247.2, 134.9 245.7 C 142.1 244.3, 148.8 243.0, 155.4 241.8 C 162.0 240.6, 168.3 239.6, 174.4 238.6 C 180.5 237.7, 186.3 236.9, 192.1 236.1 C 197.8 235.3, 203.3 234.7, 208.7 234.1 C 214.1 233.4, 219.4 232.9, 224.5 232.4 C 229.7 232.0, 234.7 231.6, 239.7 231.2 C 244.6 230.8, 249.5 230.5, 254.3 230.2 C 259.1 230.0, 263.9 229.7, 268.6 229.6 C 273.3 229.4, 278.0 229.2, 282.6 229.1 C 287.3 229.0, 291.9 229.0, 296.5 229.0 C 301.2 229.0, 305.8 229.0, 310.4 229.0 C 315.0 229.1, 319.7 229.2, 324.4 229.3 C 329.0 229.5, 333.7 229.6, 338.5 229.9 C 343.3 230.1, 348.1 230.4, 352.9 230.7 C 357.8 231.0, 362.8 231.3, 367.8 231.8 C 372.9 232.2, 378.0 232.7, 383.3 233.2 C 388.6 233.7, 393.9 234.3, 399.5 235.0 C 405.1 235.7, 410.7 236.4, 416.6 237.3 C 422.5 238.1, 428.6 239.1, 434.9 240.1 C 441.2 241.2, 447.8 242.3, 454.6 243.7 C 461.5 245.0, 468.6 246.4, 476.1 248.1 C 483.6 249.7, 491.4 251.5, 499.7 253.6 C 508.0 255.7, 516.7 258.0, 526.1 260.7 C 535.4 263.4, 545.2 266.3, 555.8 269.8 C 566.5 273.4, 577.6 277.2, 589.9 281.9 C 602.2 286.6, 615.2 291.6, 629.6 298.0 C 644.0 304.4, 659.3 311.3, 676.5 320.4 C 693.7 329.4, 712.0 339.1, 732.8 352.3 C 753.6 365.5, 776.0 379.5, 801.4 399.8 C 826.8 420.1, 854.6 441.3, 885.1 474.0 C 915.6 506.8, 951.1 540.7, 984.4 596.5 C 1017.7 652.3, 1063.7 712.2, 1084.9 808.9 C 1106.0 905.6, 1153.8 1032.0, 1111.2 1176.8 C 1068.6 1321.6, 997.5 1565.8, 829.5 1677.5 C 661.5 1789.2, 312.9 1889.0, 103.0 1847.1 C -106.9 1805.1, -326.7 1572.0, -430.1 1425.7 C -533.4 1279.4, -516.0 1092.5, -517.1 969.5 C -518.2 846.5, -467.5 761.4, -436.8 687.7 C -406.1 614.0, -365.7 569.8, -333.1 527.3 C -300.5 484.7, -269.2 458.2, -241.2 432.6 C -213.3 407.0, -188.4 389.9, -165.4 373.6 C -142.4 357.3, -122.2 345.7, -103.3 334.8 C -84.4 324.0, -67.7 315.8, -52.0 308.3 C -36.3 300.7, -22.3 294.8, -9.0 289.3 C 4.3 283.8, 16.3 279.5, 27.7 275.4 C 39.2 271.4, 49.6 268.0, 59.5 265.0 Z"/>
    <line x1="300" y1="-600" x2="300" y2="1000"/>
    <line x1="-500" y1="200" x2="1100" y2="200"/>
    <circle cx="300" cy="200" r="220"/>
  </g>
  <rect x="106" y="6" width="388" height="388" rx="12" ry="12" fill="none" stroke="#b87333" stroke-width="3"/>
  <text x="300" y="200" font-family="'Latin Modern Roman', 'CMU Serif', 'Computer Modern', 'STIX Two Text', Georgia, serif" font-size="120" fill="#b87333" text-anchor="middle">GCU</text>
  <text x="475" y="350" font-family="'Latin Modern Sans', Arial, sans-serif" font-size="14" fill="#b87333" letter-spacing="2" font-weight="bold" text-anchor="end">GEOSCIENTIFICAL</text>
  <text x="475" y="370" font-family="'Latin Modern Sans', Arial, sans-serif" font-size="14" fill="#b87333" letter-spacing="2" font-weight="bold" text-anchor="end">CHAOS UNION</text>
</svg>